<svg id="svg" version="1.1" xmlns="http://www.w3.org/2000/svg" xmlns:xlink="http://www.w3.org/1999/xlink" width="400" height="64.86486486486486" viewBox="0, 0, 400,64.86486486486486"><g id="svgg"><path id="path0" d="M121.623 5.208 C 121.052 5.642,121.000 6.287,121.000 12.974 C 121.000 21.042,121.234 20.333,118.569 20.333 C 115.526 20.333,115.290 20.504,115.290 22.700 C 115.290 24.758,115.251 24.729,118.186 24.833 C 120.255 24.907,120.555 24.954,120.764 25.240 C 120.964 25.514,121.000 28.086,121.000 42.074 C 121.001 57.458,121.020 58.623,121.292 59.167 L 121.583 59.750 123.289 59.797 C 125.360 59.855,125.895 59.652,126.159 58.708 C 126.276 58.292,126.333 52.742,126.331 42.083 C 126.330 33.283,126.330 25.911,126.331 25.700 C 126.335 25.068,127.186 24.833,129.469 24.833 C 132.001 24.833,132.000 24.834,132.000 22.624 C 132.000 20.413,131.897 20.333,129.061 20.333 C 126.057 20.333,126.334 21.056,126.332 13.208 C 126.331 6.170,126.277 5.652,125.501 5.250 C 124.884 4.931,122.028 4.900,121.623 5.208 M14.667 6.211 C 13.830 6.641,13.853 5.918,13.845 32.750 C 13.837 58.896,13.837 58.929,14.360 59.490 C 15.017 60.196,35.292 59.840,37.333 59.087 C 37.746 58.934,38.646 58.659,39.333 58.475 C 40.021 58.290,40.808 58.007,41.083 57.846 C 41.358 57.684,41.846 57.450,42.167 57.326 C 43.591 56.776,46.785 54.077,48.167 52.256 C 48.487 51.833,48.994 51.183,49.292 50.811 C 49.590 50.439,49.833 50.047,49.833 49.940 C 49.833 49.832,50.018 49.472,50.245 49.139 C 50.471 48.806,50.783 48.207,50.937 47.808 C 51.092 47.410,51.323 46.961,51.451 46.811 C 51.578 46.662,51.761 46.249,51.857 45.895 C 51.953 45.540,52.241 44.762,52.497 44.167 C 52.752 43.571,53.051 42.455,53.160 41.687 C 53.269 40.919,53.423 40.120,53.502 39.912 C 54.121 38.284,54.328 31.945,53.853 29.167 C 53.253 25.653,52.797 23.570,52.446 22.727 C 52.222 22.190,51.985 21.488,51.919 21.167 C 51.854 20.846,51.630 20.283,51.422 19.917 C 51.213 19.550,50.987 19.063,50.918 18.833 C 50.560 17.631,47.233 13.189,45.833 12.045 C 44.548 10.994,42.734 9.667,42.583 9.667 C 42.525 9.667,42.163 9.452,41.780 9.189 C 41.397 8.927,40.896 8.655,40.667 8.585 C 40.438 8.514,39.912 8.289,39.500 8.084 C 39.087 7.880,38.450 7.660,38.083 7.597 C 37.717 7.534,36.479 7.254,35.333 6.976 C 32.483 6.283,15.732 5.663,14.667 6.211 M29.750 10.996 C 30.942 11.078,32.329 11.264,32.833 11.410 C 33.337 11.555,34.330 11.783,35.039 11.916 C 35.748 12.049,36.685 12.338,37.122 12.558 C 37.559 12.777,38.096 13.013,38.316 13.081 C 40.077 13.627,44.594 17.871,45.336 19.677 C 45.465 19.992,45.738 20.497,45.942 20.800 C 46.146 21.102,46.403 21.627,46.513 21.967 C 46.623 22.306,46.842 22.771,47.000 23.000 C 47.158 23.229,47.378 23.829,47.490 24.333 C 47.601 24.837,47.839 25.608,48.019 26.045 C 49.040 28.531,49.030 38.414,48.004 41.220 C 47.830 41.695,47.601 42.420,47.494 42.831 C 46.212 47.756,41.011 53.098,36.532 54.089 C 35.918 54.225,35.004 54.460,34.500 54.612 C 33.112 55.031,19.852 55.160,19.242 54.760 L 18.833 54.492 18.833 33.022 C 18.833 9.640,18.771 11.281,19.667 10.952 C 20.072 10.802,27.398 10.835,29.750 10.996 M79.956 19.506 C 79.610 19.592,79.160 19.768,78.956 19.898 C 78.751 20.027,78.162 20.252,77.647 20.398 C 77.132 20.544,76.623 20.768,76.517 20.897 C 76.410 21.025,75.965 21.284,75.527 21.473 C 73.546 22.325,68.536 28.001,68.073 29.918 C 68.007 30.192,67.780 30.762,67.568 31.185 C 67.162 31.999,66.271 35.435,66.008 37.199 C 65.731 39.062,65.922 42.866,66.387 44.750 C 66.614 45.667,66.851 46.754,66.915 47.167 C 67.020 47.846,67.807 49.772,68.413 50.833 C 68.544 51.063,68.853 51.625,69.099 52.083 C 69.644 53.094,71.746 55.736,72.628 56.517 C 74.108 57.827,76.523 59.500,76.934 59.500 C 77.041 59.500,77.620 59.729,78.219 60.010 C 80.414 61.037,86.509 61.043,88.797 60.021 C 89.413 59.746,90.104 59.468,90.333 59.403 C 90.563 59.338,90.975 59.118,91.250 58.912 C 91.525 58.707,91.999 58.413,92.303 58.259 C 92.608 58.105,93.717 57.146,94.768 56.127 C 97.180 53.791,97.181 53.791,97.321 57.090 C 97.439 59.881,97.399 59.833,99.623 59.833 C 101.277 59.833,102.006 59.611,102.328 59.009 C 102.600 58.502,102.564 21.313,102.292 20.962 C 101.757 20.272,98.545 20.071,97.772 20.679 C 97.345 21.015,97.333 21.074,97.332 22.887 C 97.331 26.111,96.994 26.666,95.859 25.317 C 94.615 23.840,92.881 22.208,92.039 21.724 C 91.605 21.475,91.071 21.135,90.852 20.968 C 90.633 20.802,90.108 20.561,89.685 20.432 C 89.263 20.303,88.542 20.024,88.083 19.813 C 87.162 19.387,81.321 19.167,79.956 19.506 M158.083 19.482 C 157.808 19.553,157.358 19.728,157.083 19.871 C 156.808 20.014,156.184 20.249,155.697 20.393 C 152.879 21.227,148.633 25.104,146.908 28.417 C 146.717 28.783,146.436 29.308,146.283 29.583 C 145.817 30.423,145.142 32.195,144.886 33.250 C 144.752 33.800,144.522 34.737,144.373 35.333 C 143.915 37.168,143.879 42.767,144.314 44.435 C 144.503 45.158,144.731 46.179,144.822 46.704 C 144.913 47.229,145.111 47.897,145.262 48.190 C 145.413 48.482,145.676 49.127,145.847 49.624 C 146.018 50.120,146.353 50.839,146.592 51.222 C 146.831 51.604,147.331 52.404,147.704 53.000 C 148.477 54.234,152.150 57.968,153.114 58.499 C 153.464 58.692,153.938 58.954,154.167 59.081 C 155.357 59.743,156.973 60.376,157.888 60.538 C 160.111 60.932,166.153 60.662,166.781 60.141 C 166.897 60.045,167.387 59.802,167.871 59.601 C 169.600 58.882,171.080 57.807,173.124 55.786 C 174.921 54.010,175.035 54.080,175.132 57.038 C 175.224 59.845,175.215 59.833,177.345 59.833 C 179.208 59.833,179.906 59.603,180.174 58.898 C 180.408 58.281,180.388 21.581,180.153 21.142 C 179.633 20.169,175.906 19.983,175.294 20.900 C 175.227 21.001,175.170 21.871,175.168 22.833 C 175.162 25.870,174.826 26.449,173.778 25.227 C 172.594 23.847,170.923 22.269,170.181 21.833 C 169.792 21.604,169.255 21.242,168.989 21.029 C 168.723 20.816,168.223 20.566,167.877 20.475 C 167.532 20.383,166.762 20.110,166.167 19.867 C 165.033 19.405,159.416 19.138,158.083 19.482 M87.593 24.376 C 88.046 24.604,88.604 24.846,88.833 24.914 C 89.936 25.241,92.219 27.021,93.218 28.333 C 94.486 29.996,96.167 33.060,96.167 33.707 C 96.167 33.846,96.367 34.475,96.612 35.105 C 97.376 37.073,97.359 43.643,96.585 45.167 C 96.469 45.396,96.291 45.974,96.190 46.452 C 95.465 49.877,92.251 53.517,88.250 55.442 L 86.917 56.083 84.083 56.083 C 81.400 56.083,81.215 56.062,80.583 55.688 C 80.217 55.470,79.638 55.193,79.297 55.072 C 77.780 54.533,73.667 50.513,73.667 49.569 C 73.667 49.465,73.468 49.088,73.224 48.732 C 72.981 48.375,72.652 47.671,72.493 47.167 C 72.334 46.663,72.074 45.950,71.915 45.583 C 70.860 43.155,70.991 36.688,72.152 33.806 C 72.435 33.103,72.667 32.456,72.667 32.367 C 72.667 32.187,73.502 30.723,74.402 29.324 C 77.183 25.002,83.859 22.499,87.593 24.376 M166.148 24.575 C 169.781 26.215,173.294 30.102,174.003 33.265 C 174.099 33.692,174.338 34.389,174.534 34.813 C 175.676 37.282,175.084 45.311,173.543 48.250 C 173.399 48.525,173.133 49.047,172.953 49.411 C 171.915 51.499,168.849 54.431,167.034 55.071 C 166.676 55.197,166.054 55.477,165.650 55.692 C 164.483 56.315,159.804 56.286,158.583 55.648 C 158.125 55.408,157.485 55.127,157.162 55.022 C 155.599 54.517,152.847 51.721,151.669 49.443 C 151.283 48.695,150.895 47.996,150.808 47.889 C 150.721 47.783,150.472 47.145,150.255 46.473 C 150.037 45.800,149.744 44.950,149.604 44.583 C 149.232 43.613,149.232 36.387,149.604 35.417 C 149.744 35.050,150.036 34.225,150.251 33.583 C 152.749 26.152,160.240 21.907,166.148 24.575 " stroke="none" fill="#f9fbfb" fill-rule="evenodd"></path><path id="path1" d="M121.750 1.764 C 118.549 2.220,118.430 2.530,118.368 10.603 L 118.319 16.957 116.584 17.034 C 113.191 17.185,112.000 18.621,112.000 22.561 C 112.000 26.770,112.668 27.500,116.523 27.500 L 118.327 27.500 118.372 44.042 L 118.417 60.583 118.833 61.407 C 119.491 62.707,120.031 62.905,123.106 62.970 C 125.901 63.029,126.645 62.898,127.455 62.209 C 127.752 61.956,128.149 61.637,128.338 61.500 C 129.158 60.903,129.152 61.048,129.159 43.708 L 129.167 27.500 130.958 27.500 C 134.264 27.499,134.501 27.170,134.496 22.583 C 134.491 17.786,133.911 17.017,130.292 17.004 L 129.167 17.000 129.167 10.947 C 129.167 2.035,129.085 1.878,124.354 1.750 C 123.197 1.719,122.025 1.725,121.750 1.764 M13.386 3.019 C 12.401 3.249,10.747 4.851,10.555 5.760 C 10.207 7.409,10.394 60.042,10.750 60.692 C 11.961 62.905,12.356 62.978,23.167 63.011 C 32.087 63.038,33.196 62.986,34.417 62.486 C 34.692 62.373,35.942 62.189,37.196 62.077 C 39.170 61.901,39.618 61.804,40.542 61.353 C 41.129 61.067,41.754 60.833,41.930 60.832 C 42.106 60.831,42.625 60.641,43.083 60.409 C 43.542 60.178,44.292 59.797,44.750 59.564 C 45.208 59.331,45.921 58.820,46.333 58.429 C 46.746 58.038,47.346 57.542,47.667 57.327 C 48.290 56.909,49.817 55.342,49.827 55.111 C 49.831 55.035,50.221 54.565,50.696 54.068 C 51.170 53.571,51.744 52.846,51.970 52.457 C 52.196 52.068,52.512 51.600,52.670 51.417 C 52.829 51.233,53.052 50.783,53.167 50.417 C 53.281 50.050,53.541 49.525,53.745 49.250 C 54.113 48.753,54.271 48.285,54.451 47.167 C 54.502 46.846,54.715 46.379,54.924 46.130 C 55.269 45.718,55.667 44.415,55.667 43.698 C 55.667 43.540,55.808 43.148,55.981 42.826 C 57.127 40.687,57.095 25.405,55.941 24.251 C 55.817 24.127,55.663 23.513,55.599 22.887 C 55.484 21.751,55.118 20.426,54.822 20.069 C 54.735 19.965,54.514 19.442,54.330 18.906 C 54.146 18.371,53.856 17.779,53.687 17.591 C 53.518 17.404,53.294 16.995,53.190 16.684 C 52.974 16.038,51.992 14.506,51.571 14.156 C 51.415 14.027,51.155 13.611,50.992 13.232 C 50.830 12.852,50.457 12.289,50.164 11.979 C 48.090 9.788,47.103 8.877,46.083 8.215 C 45.442 7.798,44.617 7.255,44.250 7.008 C 43.004 6.169,41.068 5.195,40.408 5.074 C 40.046 5.008,39.409 4.784,38.993 4.576 C 37.949 4.052,36.598 3.833,34.415 3.833 C 32.808 3.833,32.392 3.772,31.321 3.380 L 30.083 2.926 22.083 2.891 C 17.331 2.870,13.800 2.922,13.386 3.019 M125.501 5.250 C 126.277 5.652,126.331 6.170,126.332 13.208 C 126.334 21.056,126.057 20.333,129.061 20.333 C 131.897 20.333,132.000 20.413,132.000 22.624 C 132.000 24.834,132.001 24.833,129.469 24.833 C 127.186 24.833,126.335 25.068,126.331 25.700 C 126.330 25.911,126.330 33.283,126.331 42.083 C 126.333 52.742,126.276 58.292,126.159 58.708 C 125.895 59.652,125.360 59.855,123.289 59.797 L 121.583 59.750 121.292 59.167 C 121.020 58.623,121.001 57.458,121.000 42.074 C 121.000 28.086,120.964 25.514,120.764 25.240 C 120.555 24.954,120.255 24.907,118.186 24.833 C 115.251 24.729,115.290 24.758,115.290 22.700 C 115.290 20.504,115.526 20.333,118.569 20.333 C 121.234 20.333,121.000 21.042,121.000 12.974 C 121.000 6.287,121.052 5.642,121.623 5.208 C 122.028 4.900,124.884 4.931,125.501 5.250 M28.417 6.298 C 32.912 6.457,33.396 6.505,35.333 6.976 C 36.479 7.254,37.717 7.534,38.083 7.597 C 38.450 7.660,39.087 7.880,39.500 8.084 C 39.912 8.289,40.438 8.514,40.667 8.585 C 40.896 8.655,41.397 8.927,41.780 9.189 C 42.163 9.452,42.525 9.667,42.583 9.667 C 42.734 9.667,44.548 10.994,45.833 12.045 C 47.233 13.189,50.560 17.631,50.918 18.833 C 50.987 19.063,51.213 19.550,51.422 19.917 C 51.630 20.283,51.854 20.846,51.919 21.167 C 51.985 21.488,52.222 22.190,52.446 22.727 C 52.797 23.570,53.253 25.653,53.853 29.167 C 54.328 31.945,54.121 38.284,53.502 39.912 C 53.423 40.120,53.269 40.919,53.160 41.687 C 53.051 42.455,52.752 43.571,52.497 44.167 C 52.241 44.762,51.953 45.540,51.857 45.895 C 51.761 46.249,51.578 46.662,51.451 46.811 C 51.323 46.961,51.092 47.410,50.937 47.808 C 50.783 48.207,50.471 48.806,50.245 49.139 C 50.018 49.472,49.833 49.832,49.833 49.940 C 49.833 50.047,49.590 50.439,49.292 50.811 C 48.994 51.183,48.487 51.833,48.167 52.256 C 46.785 54.077,43.591 56.776,42.167 57.326 C 41.846 57.450,41.358 57.684,41.083 57.846 C 40.808 58.007,40.021 58.290,39.333 58.475 C 38.646 58.659,37.746 58.934,37.333 59.087 C 35.292 59.840,15.017 60.196,14.360 59.490 C 13.837 58.929,13.837 58.896,13.845 32.750 C 13.853 5.918,13.830 6.641,14.667 6.211 C 15.136 5.969,19.963 6.000,28.417 6.298 M19.667 10.952 C 18.771 11.281,18.833 9.640,18.833 33.022 L 18.833 54.492 19.242 54.760 C 19.852 55.160,33.112 55.031,34.500 54.612 C 35.004 54.460,35.918 54.225,36.532 54.089 C 41.011 53.098,46.212 47.756,47.494 42.831 C 47.601 42.420,47.830 41.695,48.004 41.220 C 49.030 38.414,49.040 28.531,48.019 26.045 C 47.839 25.608,47.601 24.837,47.490 24.333 C 47.378 23.829,47.158 23.229,47.000 23.000 C 46.842 22.771,46.623 22.306,46.513 21.967 C 46.403 21.627,46.146 21.102,45.942 20.800 C 45.738 20.497,45.465 19.992,45.336 19.677 C 44.594 17.871,40.077 13.627,38.316 13.081 C 38.096 13.013,37.559 12.777,37.122 12.558 C 36.685 12.338,35.748 12.049,35.039 11.916 C 34.330 11.783,33.337 11.555,32.833 11.410 C 31.267 10.958,20.655 10.588,19.667 10.952 M339.417 13.091 C 338.958 13.313,338.208 13.609,337.750 13.748 C 337.292 13.887,336.654 14.225,336.333 14.500 C 336.012 14.774,335.705 14.999,335.651 15.000 C 335.596 15.000,335.400 15.131,335.214 15.292 C 335.029 15.452,334.629 15.771,334.324 16.000 C 333.656 16.503,333.189 17.016,332.934 17.527 C 332.830 17.736,332.435 18.115,332.057 18.369 C 331.679 18.623,331.140 19.188,330.860 19.624 C 330.580 20.060,330.024 20.736,329.625 21.127 L 328.899 21.838 328.907 20.044 C 328.913 18.443,328.867 18.151,328.476 17.333 C 328.235 16.829,327.919 16.052,327.773 15.606 C 326.891 12.915,320.555 12.627,318.917 15.203 C 318.642 15.635,318.218 16.072,317.975 16.174 C 317.384 16.423,316.960 16.928,316.583 17.833 C 316.411 18.246,316.178 18.696,316.065 18.833 C 315.623 19.370,315.313 20.659,315.223 22.333 C 315.172 23.296,315.038 24.233,314.926 24.417 C 314.478 25.148,314.308 26.022,314.158 28.354 C 314.064 29.802,313.898 31.036,313.749 31.394 C 313.611 31.725,313.418 32.367,313.320 32.821 C 313.127 33.722,312.880 33.793,312.488 33.060 C 312.030 32.205,310.550 31.828,308.952 32.159 C 307.493 32.462,306.085 33.898,304.409 36.792 C 304.236 37.090,304.042 37.333,303.977 37.333 C 303.912 37.333,303.772 37.596,303.666 37.917 C 303.502 38.415,302.648 39.577,301.155 41.333 C 300.960 41.563,300.666 42.012,300.501 42.333 C 300.337 42.654,299.950 43.189,299.643 43.522 C 299.335 43.854,298.633 44.672,298.083 45.339 C 297.533 46.006,296.666 46.971,296.157 47.484 C 295.647 47.997,295.142 48.624,295.034 48.877 C 294.926 49.131,294.631 49.429,294.377 49.539 C 294.124 49.650,293.437 50.174,292.851 50.704 C 291.983 51.488,291.342 51.876,291.332 51.625 C 291.298 50.834,290.793 46.802,290.671 46.350 C 290.541 45.868,290.560 45.523,290.751 44.900 C 291.033 43.981,291.327 40.939,291.331 38.895 C 291.333 37.898,291.399 37.486,291.583 37.334 C 291.924 37.051,292.333 35.603,292.334 34.678 C 292.334 34.166,292.490 33.617,292.811 33.000 C 293.073 32.496,293.337 31.758,293.398 31.360 C 293.459 30.962,293.653 30.353,293.830 30.007 C 294.006 29.661,294.243 29.012,294.355 28.564 C 294.468 28.116,294.771 27.283,295.030 26.712 C 295.288 26.141,295.500 25.532,295.500 25.359 C 295.500 25.186,295.642 24.864,295.816 24.644 C 296.827 23.358,296.897 19.873,295.930 18.907 C 295.783 18.759,295.457 18.370,295.207 18.042 C 294.686 17.359,293.628 16.841,291.898 16.421 C 291.172 16.244,290.512 15.961,290.194 15.690 C 288.350 14.116,286.349 13.677,284.095 14.354 C 283.447 14.548,282.542 14.816,282.083 14.949 C 281.625 15.083,280.987 15.399,280.667 15.652 C 280.346 15.905,279.902 16.209,279.679 16.328 C 279.457 16.446,279.114 16.702,278.918 16.896 C 278.721 17.091,278.227 17.511,277.821 17.830 C 276.803 18.631,273.934 21.567,272.455 23.322 L 271.833 24.060 271.832 22.405 C 271.828 19.587,271.276 18.527,269.623 18.173 C 268.174 17.862,267.046 18.045,266.214 18.725 C 265.959 18.933,265.412 19.309,265.000 19.559 C 264.587 19.809,263.950 20.235,263.583 20.506 C 263.217 20.776,262.504 21.120,262.000 21.270 C 261.496 21.420,260.821 21.673,260.500 21.834 C 259.490 22.338,253.466 22.595,252.668 22.167 C 252.487 22.070,252.236 21.627,252.096 21.158 C 251.960 20.698,251.702 20.118,251.525 19.868 C 251.347 19.618,251.120 19.111,251.020 18.741 C 250.921 18.372,250.705 17.922,250.542 17.743 C 250.378 17.563,249.972 17.003,249.640 16.498 C 248.418 14.642,245.373 13.433,243.500 14.060 C 240.256 15.147,239.352 15.835,238.083 18.183 L 237.417 19.417 237.417 21.750 C 237.417 24.184,237.570 24.979,238.175 25.676 C 238.354 25.883,238.582 26.359,238.682 26.735 C 238.781 27.110,239.034 27.604,239.243 27.833 C 240.034 28.699,240.230 29.145,240.022 29.603 C 239.916 29.835,239.752 30.368,239.658 30.787 C 239.564 31.206,239.354 31.745,239.191 31.983 C 239.027 32.222,238.801 32.739,238.688 33.134 C 238.574 33.528,238.298 34.196,238.074 34.618 C 237.849 35.040,237.584 35.692,237.483 36.067 C 237.383 36.443,237.161 36.882,236.990 37.042 C 236.819 37.203,236.600 37.628,236.504 37.986 C 236.407 38.344,236.105 38.876,235.831 39.169 C 235.557 39.462,235.333 39.772,235.333 39.858 C 235.333 39.944,235.153 40.209,234.933 40.446 C 234.713 40.684,234.493 41.077,234.444 41.320 C 234.396 41.563,234.132 42.019,233.859 42.332 C 233.585 42.645,233.320 43.108,233.269 43.361 C 233.219 43.614,232.942 44.030,232.655 44.286 C 232.368 44.541,231.766 45.217,231.316 45.788 C 230.554 46.758,228.897 48.500,228.738 48.500 C 228.547 48.500,228.709 45.677,228.933 45.083 C 229.407 43.832,229.499 43.423,229.608 42.087 C 229.669 41.352,229.822 40.590,229.948 40.395 C 230.283 39.879,230.507 39.064,230.657 37.814 C 230.738 37.139,230.924 36.526,231.136 36.231 C 231.326 35.966,231.593 35.200,231.729 34.527 C 231.864 33.854,232.089 33.178,232.228 33.025 C 232.367 32.871,232.575 32.372,232.691 31.915 C 232.807 31.457,233.023 30.896,233.171 30.667 C 233.320 30.438,233.576 29.950,233.742 29.583 C 233.907 29.217,234.139 28.804,234.257 28.667 C 234.375 28.529,234.602 28.079,234.761 27.667 C 234.921 27.254,235.194 26.757,235.368 26.562 C 236.189 25.647,236.516 20.587,235.865 18.877 C 235.184 17.088,234.244 16.226,232.185 15.503 C 229.555 14.579,225.411 16.892,224.590 19.742 C 224.433 20.288,224.172 20.903,224.010 21.108 C 223.848 21.314,223.619 21.955,223.501 22.533 C 223.382 23.111,223.155 23.733,222.996 23.917 C 222.836 24.100,222.588 24.484,222.443 24.769 C 222.299 25.055,221.876 25.618,221.502 26.019 C 221.129 26.421,220.703 26.975,220.556 27.250 C 220.304 27.721,218.661 29.647,217.633 30.674 C 217.377 30.931,217.167 31.260,217.167 31.406 C 217.167 31.552,216.735 32.110,216.208 32.646 C 215.681 33.182,214.838 34.125,214.333 34.742 C 213.829 35.359,213.132 36.173,212.785 36.550 C 212.437 36.928,211.837 37.647,211.451 38.149 C 211.066 38.650,210.496 39.328,210.185 39.655 C 209.874 39.982,209.326 40.618,208.968 41.068 C 207.961 42.331,207.054 43.333,206.918 43.333 C 206.666 43.333,207.042 41.773,207.512 40.866 C 207.781 40.349,208.000 39.844,208.000 39.744 C 208.000 39.644,208.158 39.236,208.350 38.837 C 208.543 38.438,208.808 37.753,208.938 37.314 C 209.068 36.875,209.290 36.401,209.430 36.260 C 209.570 36.120,209.804 35.648,209.949 35.211 C 210.094 34.774,210.309 34.304,210.426 34.167 C 210.543 34.029,210.773 33.579,210.937 33.167 C 211.194 32.519,212.147 31.084,212.487 30.833 C 212.549 30.787,212.797 30.412,213.038 30.000 C 213.280 29.587,213.819 28.898,214.236 28.467 C 214.901 27.781,215.440 26.948,216.288 25.294 C 216.788 24.319,216.872 18.467,216.403 17.250 C 215.665 15.334,212.797 13.752,210.979 14.257 C 210.487 14.394,209.599 14.581,209.006 14.674 C 207.652 14.885,206.600 15.490,205.591 16.638 C 205.404 16.852,205.043 17.262,204.791 17.551 C 204.538 17.840,204.289 18.209,204.238 18.371 C 204.186 18.534,203.890 19.045,203.578 19.508 C 203.267 19.970,202.962 20.626,202.900 20.966 C 202.839 21.306,202.619 21.883,202.413 22.250 C 202.206 22.617,201.944 23.217,201.831 23.583 C 201.717 23.950,201.532 24.363,201.419 24.500 C 201.162 24.812,200.667 26.278,200.667 26.727 C 200.667 26.911,200.512 27.226,200.324 27.427 C 199.992 27.780,199.506 29.246,199.502 29.906 C 199.501 30.083,199.355 30.383,199.177 30.573 C 198.999 30.762,198.764 31.292,198.654 31.750 C 198.543 32.208,198.246 33.033,197.993 33.583 C 197.740 34.133,197.480 34.921,197.415 35.333 C 197.350 35.746,197.193 36.201,197.066 36.345 C 196.793 36.656,196.338 38.085,196.335 38.641 C 196.334 38.856,196.185 39.241,196.003 39.495 C 195.668 39.967,195.167 41.618,195.167 42.252 C 195.167 42.443,195.079 42.688,194.972 42.795 C 194.631 43.136,194.337 44.208,194.178 45.692 C 194.088 46.532,193.883 47.409,193.686 47.794 C 192.733 49.663,192.763 56.283,193.733 58.388 C 193.952 58.862,194.183 59.547,194.247 59.911 C 194.744 62.761,198.858 64.846,201.353 63.514 C 201.663 63.348,202.336 63.091,202.848 62.943 C 203.679 62.702,205.139 61.686,205.534 61.073 C 205.598 60.974,205.973 60.684,206.367 60.430 C 206.761 60.176,207.458 59.515,207.917 58.961 C 208.375 58.407,209.137 57.533,209.609 57.019 C 212.773 53.575,213.952 52.254,214.200 51.873 C 214.355 51.634,214.880 51.058,215.366 50.593 C 215.852 50.128,216.588 49.298,217.000 48.749 L 217.750 47.750 217.851 52.500 C 217.955 57.331,218.056 58.140,218.668 59.002 C 218.832 59.232,219.049 59.731,219.152 60.111 C 219.805 62.537,224.097 64.654,226.178 63.577 C 226.488 63.417,227.184 63.183,227.726 63.057 C 228.268 62.930,229.032 62.611,229.423 62.346 C 229.815 62.082,230.294 61.815,230.489 61.754 C 230.683 61.692,231.166 61.366,231.561 61.029 C 231.957 60.692,232.609 60.192,233.010 59.917 C 233.800 59.376,238.833 54.399,238.833 54.159 C 238.833 54.079,239.528 53.166,240.377 52.131 C 241.226 51.097,242.323 49.650,242.816 48.917 C 243.308 48.183,243.874 47.396,244.073 47.167 C 244.599 46.560,245.265 45.514,245.611 44.750 C 245.777 44.383,246.195 43.692,246.541 43.213 C 247.388 42.041,248.752 39.424,248.997 38.500 C 249.107 38.087,249.329 37.600,249.490 37.417 C 249.652 37.233,249.879 36.708,249.996 36.250 C 250.113 35.792,250.424 34.961,250.687 34.403 C 250.951 33.846,251.167 33.303,251.167 33.195 C 251.167 33.055,251.900 32.999,253.792 32.995 C 257.422 32.989,259.290 32.787,260.396 32.281 C 260.891 32.054,261.623 31.817,262.023 31.754 C 262.423 31.690,263.162 31.430,263.667 31.175 C 264.171 30.920,264.883 30.616,265.250 30.500 C 265.824 30.317,266.731 29.803,267.000 29.508 C 267.296 29.183,267.833 29.010,267.833 29.239 C 267.833 29.372,267.757 29.528,267.663 29.585 C 267.570 29.643,267.312 30.049,267.089 30.488 C 266.867 30.927,266.505 31.503,266.286 31.768 C 266.066 32.033,265.804 32.494,265.702 32.791 C 265.601 33.089,265.336 33.576,265.114 33.875 C 264.892 34.173,264.665 34.611,264.609 34.848 C 264.553 35.085,264.341 35.490,264.138 35.748 C 263.615 36.414,261.532 40.592,261.319 41.404 C 261.221 41.778,260.966 42.346,260.753 42.667 C 260.539 42.987,260.311 43.512,260.244 43.833 C 260.178 44.154,259.904 44.883,259.636 45.453 C 259.367 46.023,259.106 46.773,259.055 47.120 C 259.004 47.466,258.778 48.149,258.554 48.637 C 258.096 49.632,257.836 50.964,257.833 52.333 C 257.832 52.869,257.717 53.458,257.556 53.750 C 257.175 54.442,257.157 56.553,257.525 57.333 C 257.676 57.654,257.890 58.359,258.000 58.899 C 258.124 59.509,258.349 60.031,258.591 60.273 C 258.806 60.488,259.207 60.991,259.482 61.390 C 260.777 63.273,264.704 64.473,266.734 63.606 C 267.093 63.454,267.876 63.215,268.474 63.076 C 270.816 62.533,273.360 60.514,277.986 55.526 C 278.850 54.595,279.653 53.833,279.771 53.833 C 280.004 53.833,280.667 55.769,280.667 56.450 C 280.667 57.095,281.143 58.577,281.463 58.931 C 281.622 59.106,281.852 59.475,281.975 59.750 C 283.211 62.531,288.047 64.654,290.722 63.591 C 291.287 63.366,292.081 63.109,292.485 63.020 C 292.889 62.930,293.428 62.703,293.683 62.514 C 293.939 62.325,294.554 61.991,295.052 61.771 C 295.550 61.551,296.010 61.286,296.073 61.183 C 296.137 61.080,296.477 60.848,296.829 60.669 C 298.659 59.735,305.760 52.815,306.174 51.562 C 306.271 51.268,306.537 50.905,306.765 50.756 C 306.992 50.606,307.521 50.019,307.940 49.450 C 308.358 48.882,308.763 48.378,308.840 48.330 C 308.916 48.282,309.128 47.896,309.310 47.471 C 309.492 47.047,309.872 46.381,310.154 45.991 C 310.436 45.602,310.667 45.186,310.667 45.068 C 310.667 44.950,310.745 44.805,310.841 44.745 C 311.167 44.544,310.849 48.515,310.499 49.014 C 310.122 49.552,309.835 50.563,309.834 51.358 C 309.834 51.692,309.590 52.517,309.292 53.191 C 308.577 54.809,308.470 58.827,309.106 60.167 C 309.794 61.616,310.863 62.739,311.792 62.989 C 312.171 63.091,312.804 63.321,313.199 63.500 C 315.349 64.476,318.044 63.409,319.447 61.027 C 319.843 60.355,320.167 59.768,320.167 59.723 C 320.167 59.678,320.422 59.103,320.734 58.445 C 321.046 57.788,321.356 56.990,321.422 56.673 C 321.488 56.356,321.715 55.831,321.927 55.506 C 322.138 55.182,322.406 54.448,322.522 53.875 C 322.638 53.302,322.791 52.833,322.862 52.833 C 323.045 52.833,323.437 52.021,323.585 51.335 C 323.654 51.015,323.888 50.521,324.105 50.236 C 324.322 49.951,324.500 49.625,324.500 49.510 C 324.500 49.248,325.784 46.572,326.199 45.969 C 326.369 45.723,326.620 45.200,326.759 44.807 C 326.898 44.414,327.149 43.941,327.318 43.755 C 327.487 43.569,327.719 43.117,327.833 42.750 C 327.948 42.383,328.219 41.845,328.437 41.553 C 328.655 41.261,328.833 40.967,328.833 40.899 C 328.833 40.832,328.938 40.658,329.067 40.513 C 329.308 40.241,329.959 39.115,330.827 37.470 C 331.101 36.950,331.409 36.473,331.510 36.410 C 331.611 36.348,331.831 35.977,331.998 35.587 C 332.166 35.197,332.666 34.408,333.110 33.834 C 334.139 32.503,334.769 31.609,334.852 31.361 C 334.946 31.080,337.546 28.043,337.782 27.939 C 337.891 27.891,338.395 27.997,338.902 28.176 C 341.957 29.249,344.742 28.183,346.135 25.408 C 346.409 24.863,346.809 24.079,347.024 23.667 C 347.492 22.772,347.705 17.690,347.327 16.417 C 346.968 15.204,345.769 14.136,343.466 12.977 C 342.526 12.504,340.508 12.561,339.417 13.091 M368.291 13.098 C 368.237 13.152,367.943 13.258,367.638 13.334 C 365.834 13.782,365.231 14.025,364.214 14.715 C 363.592 15.137,362.865 15.673,362.599 15.907 C 362.333 16.142,362.070 16.334,362.016 16.335 C 361.801 16.339,360.165 18.020,359.925 18.483 C 359.785 18.754,359.352 19.190,358.961 19.452 C 358.536 19.737,358.084 20.246,357.833 20.721 C 357.602 21.157,357.336 21.567,357.242 21.632 C 356.438 22.185,353.476 26.629,353.264 27.602 C 353.201 27.888,353.000 28.283,352.816 28.480 C 352.470 28.851,352.005 30.157,352.002 30.766 C 352.001 30.958,351.848 31.252,351.663 31.420 C 351.477 31.588,351.206 32.138,351.059 32.642 C 350.912 33.147,350.616 33.891,350.401 34.296 C 350.185 34.701,349.966 35.307,349.913 35.641 C 349.860 35.976,349.636 36.626,349.416 37.086 C 349.195 37.545,348.909 38.529,348.780 39.273 C 348.651 40.017,348.480 40.728,348.399 40.854 C 347.205 42.723,347.173 55.626,348.359 56.899 C 348.523 57.076,348.781 57.592,348.932 58.047 C 349.083 58.501,349.350 59.016,349.524 59.191 C 349.699 59.365,350.073 59.884,350.355 60.343 C 350.696 60.898,351.101 61.296,351.559 61.528 C 351.939 61.721,352.488 62.086,352.779 62.339 C 353.266 62.764,354.515 63.167,355.348 63.167 C 355.531 63.167,355.996 63.332,356.382 63.533 C 357.453 64.093,360.212 64.167,361.583 63.673 C 362.140 63.472,363.346 63.242,364.304 63.155 C 365.591 63.037,366.319 62.872,367.196 62.499 C 367.841 62.224,368.499 62.000,368.660 62.000 C 368.820 62.000,369.544 61.700,370.267 61.334 C 370.991 60.968,371.666 60.668,371.767 60.667 C 371.867 60.667,372.261 60.442,372.640 60.167 C 373.020 59.892,373.425 59.666,373.540 59.666 C 373.764 59.665,374.861 59.041,375.000 58.835 C 375.046 58.767,375.383 58.557,375.750 58.368 C 376.117 58.179,376.664 57.795,376.966 57.515 C 377.267 57.235,377.867 56.802,378.299 56.553 C 378.730 56.305,379.242 55.936,379.435 55.733 C 379.629 55.531,380.023 55.244,380.312 55.094 C 380.600 54.945,381.117 54.461,381.460 54.018 C 381.803 53.575,382.320 53.125,382.609 53.018 C 382.898 52.911,383.395 52.507,383.713 52.120 C 384.032 51.733,384.901 50.820,385.646 50.090 C 386.391 49.361,387.000 48.673,387.000 48.562 C 387.000 48.451,387.357 47.960,387.794 47.472 C 389.417 45.656,390.126 44.730,390.451 44.000 C 390.635 43.587,390.942 43.110,391.135 42.940 C 391.329 42.767,391.574 42.231,391.685 41.731 C 391.796 41.237,391.938 40.833,392.001 40.833 C 392.662 40.833,393.012 37.372,392.448 36.417 C 391.314 34.498,390.781 34.137,389.039 34.110 C 386.663 34.073,386.746 34.026,384.167 36.828 C 381.567 39.652,376.803 44.333,376.528 44.333 C 376.439 44.333,376.002 44.715,375.558 45.181 C 375.114 45.647,374.525 46.145,374.250 46.287 C 373.975 46.429,373.174 46.967,372.471 47.481 C 370.436 48.970,370.180 49.115,366.331 50.975 C 365.733 51.264,365.088 51.500,364.897 51.500 C 364.706 51.500,364.197 51.688,363.766 51.917 C 362.772 52.445,362.001 52.448,361.205 51.925 C 359.476 50.789,359.309 50.420,359.370 47.873 L 359.417 45.917 361.083 45.954 C 366.077 46.065,368.842 45.242,371.854 42.750 C 372.187 42.475,372.961 41.842,373.575 41.343 C 374.189 40.844,374.797 40.231,374.927 39.981 C 375.056 39.731,375.463 39.178,375.831 38.753 C 376.199 38.328,376.500 37.869,376.500 37.734 C 376.500 37.483,376.919 36.751,377.279 36.374 C 377.388 36.259,377.525 35.996,377.583 35.791 C 377.640 35.585,377.917 34.903,378.197 34.276 C 378.538 33.513,378.734 32.767,378.788 32.026 C 378.832 31.416,379.058 30.392,379.291 29.750 C 380.117 27.470,380.020 23.100,379.098 21.113 C 378.878 20.638,378.649 20.015,378.590 19.727 C 378.530 19.440,378.148 18.841,377.741 18.398 C 377.333 17.954,377.000 17.542,377.000 17.482 C 377.000 17.423,376.756 17.279,376.458 17.163 C 374.863 16.543,374.510 16.287,374.228 15.549 C 374.075 15.149,373.737 14.642,373.477 14.423 C 372.558 13.650,368.720 12.669,368.291 13.098 M28.417 13.874 C 28.958 14.170,31.182 14.499,32.662 14.502 C 33.280 14.503,33.864 14.634,34.435 14.900 C 34.904 15.118,35.542 15.350,35.852 15.414 C 36.394 15.527,37.382 16.088,38.083 16.682 C 38.267 16.838,38.690 17.109,39.023 17.285 C 39.716 17.650,41.781 19.749,41.941 20.250 C 42.000 20.433,42.219 20.808,42.429 21.084 C 42.638 21.359,42.961 21.921,43.147 22.334 C 43.332 22.746,43.594 23.271,43.727 23.500 C 44.434 24.709,44.858 25.916,44.997 27.112 C 45.161 28.529,45.419 29.434,45.774 29.846 C 46.232 30.380,46.086 36.606,45.589 37.692 C 45.352 38.209,45.112 39.154,45.024 39.920 C 44.884 41.144,44.532 42.131,43.750 43.500 C 43.619 43.729,43.334 44.293,43.116 44.753 C 42.409 46.244,39.935 49.016,38.785 49.606 C 38.491 49.757,38.071 50.020,37.853 50.190 C 37.634 50.361,37.348 50.500,37.217 50.500 C 37.086 50.500,36.590 50.682,36.115 50.904 C 35.478 51.201,34.730 51.356,33.282 51.491 C 32.157 51.596,30.945 51.816,30.449 52.004 C 29.679 52.297,29.163 52.333,25.792 52.333 L 22.000 52.333 22.000 32.903 L 22.000 13.473 24.958 13.536 C 27.300 13.587,28.021 13.657,28.417 13.874 M82.167 16.010 C 81.571 16.090,80.640 16.308,80.099 16.495 C 79.557 16.681,78.876 16.833,78.584 16.833 C 77.875 16.833,76.635 17.218,76.054 17.617 C 75.795 17.795,75.241 18.067,74.822 18.222 C 74.404 18.377,73.602 18.874,73.040 19.327 C 72.478 19.780,71.733 20.298,71.384 20.478 C 71.035 20.658,70.431 21.168,70.041 21.611 C 69.651 22.054,68.864 22.942,68.291 23.583 C 67.719 24.225,67.100 25.046,66.917 25.408 C 66.733 25.770,66.441 26.236,66.266 26.445 C 66.091 26.653,65.812 27.211,65.645 27.686 C 65.478 28.160,65.228 28.673,65.090 28.826 C 64.952 28.979,64.698 29.667,64.526 30.356 C 64.353 31.045,64.098 31.790,63.958 32.012 C 62.864 33.752,62.939 46.864,64.050 48.141 C 64.182 48.292,64.384 48.926,64.499 49.548 C 64.613 50.170,64.876 50.929,65.083 51.234 C 65.290 51.539,65.553 52.079,65.667 52.436 C 65.782 52.792,65.971 53.196,66.088 53.333 C 66.204 53.471,66.540 53.996,66.834 54.500 C 68.352 57.105,73.184 61.563,74.880 61.923 C 75.175 61.985,75.653 62.214,75.941 62.430 C 76.487 62.840,77.555 63.156,78.419 63.163 C 78.695 63.165,79.217 63.325,79.579 63.519 C 81.070 64.318,85.514 64.326,87.333 63.533 C 87.746 63.353,88.484 63.156,88.973 63.095 C 89.479 63.032,90.337 62.737,90.966 62.409 C 91.573 62.092,92.150 61.833,92.247 61.833 C 92.345 61.833,92.810 61.579,93.282 61.268 C 94.529 60.447,94.534 60.447,95.000 61.388 C 95.723 62.849,95.889 62.908,99.404 62.971 C 103.678 63.048,104.480 62.762,105.048 60.958 C 105.404 59.830,105.494 21.120,105.144 19.730 C 104.672 17.853,102.819 17.002,99.203 17.001 C 95.852 17.000,95.254 17.245,94.842 18.792 C 94.624 19.611,94.528 19.642,93.888 19.104 C 93.629 18.886,92.967 18.484,92.417 18.210 C 91.867 17.936,91.101 17.545,90.716 17.342 C 90.270 17.107,89.513 16.923,88.633 16.834 C 87.872 16.758,86.875 16.547,86.417 16.367 C 85.395 15.964,83.613 15.814,82.167 16.010 M160.250 16.008 C 159.608 16.080,158.746 16.263,158.333 16.417 C 157.921 16.570,157.085 16.761,156.476 16.841 C 155.141 17.016,151.344 18.874,150.250 19.886 C 150.067 20.056,149.692 20.310,149.417 20.451 C 148.703 20.816,148.354 21.156,148.063 21.769 C 147.923 22.064,147.518 22.507,147.162 22.753 C 146.807 22.999,146.390 23.400,146.236 23.642 C 146.082 23.885,145.675 24.458,145.331 24.917 C 144.987 25.375,144.654 25.919,144.591 26.125 C 144.529 26.331,144.418 26.500,144.345 26.500 C 144.165 26.500,143.333 28.377,143.333 28.783 C 143.333 28.962,143.151 29.280,142.929 29.489 C 142.630 29.770,142.472 30.180,142.325 31.059 C 142.216 31.714,141.991 32.445,141.826 32.684 C 140.745 34.248,140.805 46.005,141.903 47.713 C 142.034 47.917,142.223 48.533,142.322 49.083 C 142.421 49.633,142.755 50.608,143.064 51.250 C 143.373 51.892,143.665 52.534,143.712 52.677 C 143.890 53.212,145.850 55.997,146.168 56.168 C 146.350 56.265,146.651 56.643,146.837 57.008 C 147.147 57.615,148.763 59.328,149.030 59.332 C 149.092 59.333,149.242 59.432,149.363 59.553 C 150.049 60.238,152.091 61.670,152.626 61.841 C 152.969 61.950,153.630 62.253,154.095 62.515 C 154.616 62.808,155.319 63.033,155.928 63.102 C 156.472 63.163,157.196 63.353,157.537 63.524 C 159.024 64.270,163.037 64.334,165.051 63.643 C 165.619 63.449,166.603 63.188,167.238 63.064 C 167.873 62.940,168.660 62.662,168.988 62.445 C 169.315 62.229,169.855 61.963,170.188 61.853 C 170.520 61.744,171.154 61.397,171.597 61.082 L 172.403 60.509 172.876 61.390 C 173.636 62.807,173.918 62.907,177.333 62.974 C 181.622 63.059,182.337 62.823,182.907 61.139 C 183.143 60.444,183.166 58.180,183.127 39.861 L 183.083 19.362 182.577 18.639 C 181.652 17.319,180.925 17.093,177.417 17.034 C 173.804 16.973,173.495 17.069,172.833 18.458 C 172.381 19.408,172.203 19.501,171.765 19.017 C 171.079 18.258,168.065 16.978,166.625 16.833 C 165.869 16.757,164.875 16.549,164.417 16.370 C 163.400 15.973,161.809 15.835,160.250 16.008 M342.646 16.155 C 345.557 16.718,345.727 21.540,342.940 24.477 C 341.762 25.719,341.479 25.764,339.689 24.992 C 337.876 24.211,338.069 24.226,336.922 24.769 C 336.076 25.170,334.050 27.232,332.993 28.770 C 332.859 28.965,332.283 29.753,331.712 30.520 C 331.140 31.288,330.520 32.142,330.334 32.417 C 329.263 33.994,328.833 34.673,328.833 34.792 C 328.833 34.866,328.533 35.325,328.167 35.813 C 327.800 36.301,327.500 36.795,327.500 36.911 C 327.500 37.027,327.360 37.301,327.189 37.519 C 326.918 37.866,325.984 39.570,324.506 42.417 C 324.268 42.875,323.907 43.512,323.704 43.833 C 323.501 44.154,323.334 44.531,323.334 44.670 C 323.334 44.810,322.857 45.860,322.276 47.004 C 321.694 48.148,321.121 49.377,321.003 49.736 C 320.885 50.096,320.657 50.621,320.496 50.903 C 320.335 51.186,320.110 51.711,319.996 52.070 C 319.882 52.429,319.655 52.954,319.491 53.236 C 319.327 53.519,319.105 54.087,318.996 54.498 C 318.888 54.910,318.667 55.435,318.506 55.665 C 318.345 55.895,318.123 56.383,318.012 56.750 C 317.513 58.404,316.467 60.198,315.850 60.455 C 313.174 61.573,310.936 58.498,312.000 55.167 C 312.183 54.593,312.333 53.996,312.333 53.841 C 312.333 53.685,312.521 53.007,312.750 52.332 C 312.980 51.658,313.248 50.613,313.346 50.011 C 313.445 49.409,313.705 48.279,313.926 47.500 C 314.146 46.721,314.399 45.446,314.487 44.667 C 314.575 43.887,314.799 42.762,314.985 42.164 C 315.170 41.567,315.444 40.033,315.592 38.754 C 315.740 37.475,315.974 36.098,316.111 35.694 C 316.248 35.291,316.499 33.788,316.668 32.355 C 316.838 30.922,317.095 29.294,317.240 28.738 C 317.386 28.181,317.612 26.681,317.743 25.404 C 318.182 21.132,319.004 19.368,321.721 16.875 C 324.025 14.760,326.238 17.463,325.502 21.494 C 325.394 22.086,325.173 22.761,325.010 22.994 C 324.847 23.226,324.580 23.829,324.417 24.333 C 324.254 24.837,323.983 25.525,323.814 25.861 C 323.645 26.197,323.424 27.022,323.322 27.695 C 323.220 28.367,322.991 29.249,322.814 29.656 C 322.636 30.062,322.385 31.052,322.255 31.855 C 322.126 32.657,321.862 33.824,321.670 34.446 C 321.084 36.341,321.066 38.333,321.634 38.333 C 321.890 38.333,323.117 36.523,324.175 34.583 C 324.537 33.919,325.052 33.121,327.668 29.167 C 329.413 26.529,332.081 22.976,333.049 22.000 C 333.458 21.587,334.158 20.828,334.605 20.311 C 337.445 17.028,340.088 15.661,342.646 16.155 M370.850 16.547 C 371.162 16.756,371.605 17.274,371.835 17.698 C 372.446 18.824,372.726 19.072,373.747 19.394 C 375.803 20.042,376.948 22.765,376.614 26.210 C 376.250 29.953,376.119 30.791,375.762 31.651 C 375.550 32.164,375.284 32.976,375.172 33.456 C 375.060 33.937,374.833 34.500,374.669 34.709 C 374.505 34.918,374.250 35.377,374.103 35.728 C 373.280 37.698,368.532 41.862,366.667 42.250 C 366.346 42.317,365.633 42.564,365.083 42.800 C 363.643 43.417,359.777 43.463,358.782 42.875 C 357.337 42.021,357.132 42.197,356.574 44.774 C 355.988 47.480,356.129 49.766,357.030 52.193 C 357.239 52.755,358.849 54.413,359.525 54.763 C 360.343 55.186,364.972 55.040,366.000 54.559 C 366.412 54.366,367.050 54.113,367.417 53.996 C 367.783 53.879,368.505 53.569,369.021 53.308 C 369.536 53.047,370.000 52.833,370.051 52.833 C 370.443 52.833,376.394 48.821,377.083 48.093 C 377.175 47.996,377.625 47.617,378.083 47.251 C 378.542 46.884,379.186 46.322,379.516 46.001 C 379.846 45.679,380.899 44.704,381.856 43.833 C 382.813 42.962,383.931 41.843,384.340 41.346 C 386.505 38.716,388.285 36.969,388.734 37.034 C 390.892 37.348,387.979 43.470,383.914 47.167 C 383.662 47.396,383.162 47.950,382.804 48.399 C 382.446 48.847,381.875 49.434,381.535 49.703 C 381.195 49.972,380.342 50.751,379.641 51.435 C 378.520 52.526,377.294 53.502,375.583 54.664 C 375.308 54.851,374.673 55.303,374.171 55.669 C 373.669 56.034,373.199 56.333,373.125 56.333 C 373.052 56.333,372.610 56.596,372.144 56.917 C 371.678 57.237,371.206 57.500,371.097 57.500 C 370.988 57.500,370.649 57.684,370.345 57.908 C 370.041 58.132,369.558 58.365,369.271 58.424 C 368.985 58.484,368.437 58.713,368.055 58.932 C 367.672 59.152,366.885 59.443,366.305 59.580 C 365.725 59.716,364.837 59.994,364.333 60.197 C 363.488 60.538,363.137 60.568,359.833 60.575 L 356.250 60.583 355.083 59.929 C 353.255 58.903,351.341 56.909,351.330 56.019 C 351.328 55.871,351.097 55.112,350.816 54.333 C 349.951 51.931,349.970 46.430,350.851 44.047 C 350.926 43.843,351.108 42.987,351.254 42.144 C 351.400 41.301,351.631 40.397,351.767 40.134 C 351.903 39.871,352.165 39.050,352.349 38.308 C 352.534 37.567,352.786 36.801,352.909 36.605 C 353.032 36.410,353.255 35.819,353.404 35.292 C 353.554 34.765,353.861 33.985,354.088 33.559 C 354.315 33.132,354.500 32.669,354.500 32.529 C 354.500 32.292,355.346 30.387,355.957 29.250 C 356.104 28.975,356.374 28.450,356.556 28.083 C 356.738 27.717,357.015 27.267,357.171 27.083 C 357.327 26.900,357.855 26.150,358.344 25.417 C 359.910 23.068,363.554 19.105,365.500 17.633 C 367.465 16.147,369.607 15.712,370.850 16.547 M212.302 17.347 C 213.922 17.912,214.629 21.505,213.526 23.565 C 213.237 24.105,213.000 24.633,213.000 24.737 C 213.000 25.055,211.971 26.549,210.913 27.767 C 209.365 29.549,206.667 34.083,206.667 34.901 C 206.667 35.021,206.448 35.529,206.181 36.029 C 205.914 36.529,205.608 37.271,205.501 37.678 C 205.394 38.084,205.159 38.670,204.979 38.981 C 204.799 39.291,204.537 40.041,204.396 40.647 C 204.256 41.254,204.001 41.976,203.831 42.253 C 203.660 42.530,203.409 43.292,203.272 43.946 C 203.136 44.601,202.906 45.365,202.761 45.645 C 202.183 46.764,202.015 50.166,202.510 50.762 C 203.195 51.588,205.884 49.971,207.382 47.832 C 207.509 47.651,208.034 47.034,208.549 46.460 C 209.064 45.886,209.807 45.029,210.201 44.556 C 210.594 44.082,212.042 42.395,213.417 40.806 C 214.792 39.217,216.115 37.654,216.357 37.333 C 216.599 37.012,217.649 35.775,218.690 34.583 C 221.820 31.000,223.240 29.205,224.875 26.766 C 225.530 25.789,226.582 23.543,226.904 22.434 C 228.012 18.625,231.129 17.188,232.821 19.708 C 234.022 21.496,233.827 22.795,231.790 26.583 C 231.300 27.495,230.333 29.606,230.333 29.764 C 230.333 29.849,230.146 30.272,229.916 30.703 C 229.687 31.133,229.394 31.883,229.265 32.368 C 229.135 32.853,228.875 33.594,228.685 34.015 C 228.496 34.436,228.255 35.186,228.150 35.682 C 228.045 36.178,227.822 36.854,227.654 37.186 C 227.487 37.517,227.242 38.454,227.111 39.269 C 226.980 40.084,226.751 41.042,226.601 41.400 C 226.452 41.757,226.253 42.770,226.160 43.650 C 226.066 44.530,225.905 45.978,225.802 46.869 C 225.245 51.678,226.602 53.811,229.165 52.154 C 231.989 50.329,234.089 47.932,237.272 42.897 C 238.800 40.479,241.414 35.270,242.153 33.167 C 242.331 32.662,242.638 31.800,242.837 31.250 C 243.559 29.256,243.495 28.043,242.615 27.037 C 239.936 23.976,239.745 20.081,242.175 18.051 C 244.573 16.048,247.837 17.710,248.783 21.414 C 249.355 23.657,249.964 24.427,251.750 25.173 C 253.610 25.950,257.210 26.014,259.500 25.312 C 260.279 25.072,261.367 24.763,261.917 24.624 C 263.812 24.145,265.701 23.176,267.200 21.914 C 267.829 21.385,268.741 21.349,269.005 21.843 C 269.596 22.947,267.390 25.746,264.869 27.091 C 264.345 27.370,263.767 27.685,263.583 27.791 C 262.631 28.339,260.456 29.165,259.521 29.332 C 258.936 29.437,257.999 29.682,257.437 29.876 C 256.539 30.188,255.999 30.235,252.917 30.265 C 250.992 30.283,249.319 30.306,249.200 30.316 C 249.081 30.326,248.867 30.615,248.724 30.958 C 248.582 31.302,248.328 31.888,248.160 32.259 C 247.992 32.631,247.764 33.306,247.653 33.759 C 247.542 34.213,247.283 34.883,247.077 35.250 C 246.872 35.617,246.610 36.217,246.495 36.583 C 246.381 36.950,246.145 37.453,245.971 37.701 C 245.797 37.949,245.571 38.399,245.468 38.701 C 245.171 39.578,242.364 44.253,241.083 46.005 C 240.900 46.256,240.346 47.051,239.852 47.772 C 239.358 48.493,238.531 49.571,238.014 50.167 C 237.496 50.762,236.854 51.550,236.586 51.917 C 234.974 54.123,230.219 58.401,228.159 59.500 C 227.730 59.729,227.141 60.051,226.851 60.215 C 226.216 60.574,224.469 60.760,223.679 60.552 C 221.004 59.848,219.735 51.678,221.162 44.333 C 221.938 40.336,221.550 39.142,220.053 40.925 C 219.408 41.695,217.604 43.643,214.583 46.834 C 212.890 48.623,211.725 49.925,209.523 52.488 C 202.390 60.794,199.385 62.497,197.458 59.327 C 196.139 57.157,195.928 49.599,197.100 46.454 C 197.245 46.067,197.512 45.153,197.695 44.424 C 197.878 43.695,198.163 42.832,198.327 42.508 C 198.492 42.183,198.681 41.579,198.747 41.167 C 198.813 40.754,199.074 39.892,199.328 39.250 C 199.582 38.608,199.845 37.829,199.913 37.517 C 199.981 37.206,200.254 36.494,200.518 35.934 C 200.783 35.374,201.000 34.767,201.000 34.583 C 201.000 34.400,201.222 33.782,201.492 33.210 C 201.763 32.638,202.035 31.888,202.098 31.543 C 202.161 31.199,202.352 30.637,202.524 30.296 C 202.860 29.627,203.441 28.160,204.159 26.167 C 206.646 19.263,209.361 16.322,212.302 17.347 M286.872 17.317 C 287.089 17.399,287.713 17.884,288.258 18.393 C 289.311 19.378,289.844 19.598,290.761 19.426 C 293.201 18.968,294.089 21.561,292.533 24.603 C 292.341 24.980,292.093 25.655,291.983 26.103 C 291.874 26.550,291.613 27.217,291.404 27.583 C 291.196 27.950,290.972 28.550,290.908 28.917 C 290.843 29.283,290.620 29.996,290.411 30.500 C 290.202 31.004,289.950 31.867,289.849 32.417 C 289.749 32.967,289.518 33.792,289.337 34.250 C 289.155 34.708,288.861 36.021,288.682 37.167 C 288.503 38.313,288.221 39.813,288.056 40.500 C 287.807 41.537,287.755 42.488,287.753 46.083 L 287.750 50.417 288.333 52.143 C 289.395 55.283,290.879 55.831,293.679 54.114 C 295.045 53.277,299.253 49.186,300.826 47.167 C 301.290 46.571,302.100 45.537,302.627 44.870 C 304.157 42.929,304.210 42.856,305.724 40.583 C 308.610 36.250,308.783 36.016,309.245 35.805 C 310.487 35.239,310.882 38.206,309.822 40.146 C 309.641 40.478,309.339 41.087,309.151 41.500 C 308.482 42.970,307.746 44.188,305.737 47.151 C 303.518 50.425,299.044 55.122,295.917 57.459 C 290.879 61.224,287.934 61.664,285.470 59.017 C 284.469 57.943,284.252 57.553,283.418 55.333 C 283.285 54.978,283.121 53.153,283.001 50.667 C 282.715 44.757,282.645 44.700,279.960 48.177 C 277.849 50.910,276.590 52.464,275.714 53.417 C 274.342 54.909,272.132 57.161,271.732 57.474 C 269.832 58.964,269.259 59.340,267.424 60.301 C 264.755 61.698,260.944 59.754,260.477 56.758 C 260.262 55.376,260.530 52.530,260.989 51.322 C 261.171 50.843,261.407 50.031,261.513 49.517 C 261.619 49.004,261.838 48.321,262.001 48.000 C 262.164 47.679,262.415 47.016,262.560 46.527 C 262.705 46.038,262.967 45.401,263.142 45.111 C 263.317 44.821,263.554 44.283,263.669 43.917 C 263.784 43.550,264.047 42.950,264.254 42.583 C 264.461 42.217,264.723 41.617,264.838 41.250 C 264.953 40.883,265.177 40.396,265.337 40.167 C 265.498 39.938,265.739 39.486,265.873 39.163 C 266.008 38.840,266.443 38.015,266.839 37.329 C 267.235 36.644,267.719 35.783,267.914 35.417 C 268.108 35.050,268.458 34.450,268.691 34.083 C 268.924 33.717,269.442 32.892,269.842 32.250 C 270.243 31.608,270.707 30.896,270.874 30.667 C 271.041 30.438,271.753 29.462,272.455 28.500 C 277.852 21.103,284.095 16.260,286.872 17.317 M88.083 19.813 C 88.542 20.024,89.263 20.303,89.685 20.432 C 90.108 20.561,90.633 20.802,90.852 20.968 C 91.071 21.135,91.605 21.475,92.039 21.724 C 92.881 22.208,94.615 23.840,95.859 25.317 C 96.994 26.666,97.331 26.111,97.332 22.887 C 97.333 21.074,97.345 21.015,97.772 20.679 C 98.545 20.071,101.757 20.272,102.292 20.962 C 102.564 21.313,102.600 58.502,102.328 59.009 C 102.006 59.611,101.277 59.833,99.623 59.833 C 97.399 59.833,97.439 59.881,97.321 57.090 C 97.181 53.791,97.180 53.791,94.768 56.127 C 93.717 57.146,92.608 58.105,92.303 58.259 C 91.999 58.413,91.525 58.707,91.250 58.912 C 90.975 59.118,90.563 59.338,90.333 59.403 C 90.104 59.468,89.413 59.746,88.797 60.021 C 86.509 61.043,80.414 61.037,78.219 60.010 C 77.620 59.729,77.041 59.500,76.934 59.500 C 76.523 59.500,74.108 57.827,72.628 56.517 C 71.746 55.736,69.644 53.094,69.099 52.083 C 68.853 51.625,68.544 51.063,68.413 50.833 C 67.807 49.772,67.020 47.846,66.915 47.167 C 66.851 46.754,66.614 45.667,66.387 44.750 C 65.922 42.866,65.731 39.062,66.008 37.199 C 66.271 35.435,67.162 31.999,67.568 31.185 C 67.780 30.762,68.007 30.192,68.073 29.918 C 68.536 28.001,73.546 22.325,75.527 21.473 C 75.965 21.284,76.410 21.025,76.517 20.897 C 76.623 20.768,77.132 20.544,77.647 20.398 C 78.162 20.252,78.751 20.027,78.956 19.898 C 80.075 19.191,86.606 19.130,88.083 19.813 M166.167 19.867 C 166.762 20.110,167.532 20.383,167.877 20.475 C 168.223 20.566,168.723 20.816,168.989 21.029 C 169.255 21.242,169.792 21.604,170.181 21.833 C 170.923 22.269,172.594 23.847,173.778 25.227 C 174.826 26.449,175.162 25.870,175.168 22.833 C 175.170 21.871,175.227 21.001,175.294 20.900 C 175.906 19.983,179.633 20.169,180.153 21.142 C 180.388 21.581,180.408 58.281,180.174 58.898 C 179.906 59.603,179.208 59.833,177.345 59.833 C 175.215 59.833,175.224 59.845,175.132 57.038 C 175.035 54.080,174.921 54.010,173.124 55.786 C 171.080 57.807,169.600 58.882,167.871 59.601 C 167.387 59.802,166.897 60.045,166.781 60.141 C 166.153 60.662,160.111 60.932,157.888 60.538 C 156.973 60.376,155.357 59.743,154.167 59.081 C 153.938 58.954,153.464 58.692,153.114 58.499 C 152.150 57.968,148.477 54.234,147.704 53.000 C 147.331 52.404,146.831 51.604,146.592 51.222 C 146.353 50.839,146.018 50.120,145.847 49.624 C 145.676 49.127,145.413 48.482,145.262 48.190 C 145.111 47.897,144.913 47.229,144.822 46.704 C 144.731 46.179,144.503 45.158,144.314 44.435 C 143.879 42.767,143.915 37.168,144.373 35.333 C 144.522 34.737,144.752 33.800,144.886 33.250 C 145.142 32.195,145.817 30.423,146.283 29.583 C 146.436 29.308,146.717 28.783,146.908 28.417 C 148.633 25.104,152.879 21.227,155.697 20.393 C 156.184 20.249,156.808 20.014,157.083 19.871 C 158.481 19.144,164.386 19.142,166.167 19.867 M367.790 23.139 C 366.510 23.983,364.010 26.802,363.063 28.468 C 361.641 30.973,360.252 33.711,360.088 34.333 C 360.028 34.563,359.795 35.174,359.570 35.692 C 358.282 38.668,363.127 38.515,367.167 35.451 C 370.805 32.691,372.659 27.916,371.208 25.042 C 370.263 23.170,368.897 22.409,367.790 23.139 M82.000 23.993 C 79.417 24.487,75.949 26.919,74.402 29.324 C 73.502 30.723,72.667 32.187,72.667 32.367 C 72.667 32.456,72.435 33.103,72.152 33.806 C 70.991 36.688,70.860 43.155,71.915 45.583 C 72.074 45.950,72.334 46.663,72.493 47.167 C 72.652 47.671,72.981 48.375,73.224 48.732 C 73.468 49.088,73.667 49.465,73.667 49.569 C 73.667 50.513,77.780 54.533,79.297 55.072 C 79.638 55.193,80.217 55.470,80.583 55.688 C 81.215 56.062,81.400 56.083,84.083 56.083 L 86.917 56.083 88.250 55.442 C 92.251 53.517,95.465 49.877,96.190 46.452 C 96.291 45.974,96.469 45.396,96.585 45.167 C 97.359 43.643,97.376 37.073,96.612 35.105 C 96.367 34.475,96.167 33.846,96.167 33.707 C 96.167 33.060,94.486 29.996,93.218 28.333 C 92.219 27.021,89.936 25.241,88.833 24.914 C 88.604 24.846,88.046 24.604,87.593 24.376 C 86.679 23.917,83.529 23.701,82.000 23.993 M160.083 23.994 C 156.123 24.659,151.850 28.826,150.251 33.583 C 150.036 34.225,149.744 35.050,149.604 35.417 C 149.232 36.387,149.232 43.613,149.604 44.583 C 149.744 44.950,150.037 45.800,150.255 46.473 C 150.472 47.145,150.721 47.783,150.808 47.889 C 150.895 47.996,151.283 48.695,151.669 49.443 C 152.847 51.721,155.599 54.517,157.162 55.022 C 157.485 55.127,158.125 55.408,158.583 55.648 C 159.804 56.286,164.483 56.315,165.650 55.692 C 166.054 55.477,166.676 55.197,167.034 55.071 C 168.849 54.431,171.915 51.499,172.953 49.411 C 173.133 49.047,173.399 48.525,173.543 48.250 C 175.084 45.311,175.676 37.282,174.534 34.813 C 174.338 34.389,174.099 33.692,174.003 33.265 C 173.908 32.837,173.593 32.059,173.304 31.535 C 170.082 25.701,165.496 23.084,160.083 23.994 M282.378 24.107 C 281.640 24.470,279.779 26.201,278.941 27.303 C 278.561 27.803,278.063 28.454,277.833 28.750 C 276.527 30.438,276.024 31.136,275.792 31.583 C 275.649 31.858,275.367 32.271,275.166 32.500 C 274.812 32.904,274.648 33.172,273.583 35.088 C 273.308 35.583,272.738 36.609,272.315 37.369 C 271.892 38.129,271.491 38.938,271.423 39.167 C 271.354 39.396,271.129 39.883,270.922 40.250 C 270.715 40.617,270.451 41.217,270.336 41.583 C 270.220 41.950,269.992 42.475,269.827 42.750 C 269.663 43.025,269.405 43.727,269.255 44.309 C 269.105 44.892,268.839 45.636,268.664 45.962 C 268.489 46.289,268.262 46.975,268.160 47.486 C 268.058 47.998,267.829 48.819,267.650 49.310 C 266.738 51.812,267.251 53.833,268.796 53.833 C 270.165 53.833,275.144 48.289,278.750 42.750 C 279.208 42.046,279.771 41.182,280.000 40.830 C 280.945 39.380,282.167 37.341,282.167 37.214 C 282.167 37.140,282.617 36.181,283.167 35.083 C 283.717 33.984,284.251 32.823,284.354 32.501 C 284.457 32.180,284.679 31.687,284.848 31.405 C 285.267 30.711,285.723 27.818,285.593 26.680 C 285.328 24.347,284.018 23.298,282.378 24.107 M84.945 26.827 C 85.281 27.007,85.974 27.242,86.486 27.348 C 88.272 27.719,92.667 31.877,92.667 33.197 C 92.667 33.370,92.861 33.895,93.098 34.363 C 93.418 34.994,93.570 35.641,93.684 36.854 C 93.769 37.755,93.912 38.686,94.003 38.924 C 94.214 39.480,94.213 40.524,94.000 41.084 C 93.908 41.326,93.757 42.389,93.664 43.448 C 93.542 44.842,93.410 45.493,93.187 45.811 C 93.018 46.052,92.783 46.550,92.664 46.917 C 92.056 48.798,88.418 52.145,86.439 52.644 C 86.004 52.753,85.372 52.991,85.035 53.171 C 84.261 53.586,83.493 53.591,82.975 53.183 C 82.753 53.008,82.237 52.775,81.829 52.665 C 81.421 52.556,80.898 52.332,80.668 52.168 C 80.438 52.005,79.987 51.759,79.667 51.622 C 78.516 51.129,76.221 48.274,75.841 46.861 C 75.748 46.517,75.533 46.086,75.363 45.904 C 75.193 45.721,75.004 45.256,74.942 44.870 C 74.880 44.484,74.643 43.746,74.415 43.230 C 73.792 41.822,73.793 37.992,74.417 36.630 C 74.646 36.129,74.899 35.371,74.978 34.945 C 75.058 34.519,75.211 34.064,75.318 33.935 C 75.529 33.681,76.275 32.325,76.797 31.248 C 77.509 29.778,80.350 27.697,82.243 27.258 C 82.859 27.115,83.523 26.886,83.719 26.749 C 84.171 26.432,84.213 26.435,84.945 26.827 M162.783 26.750 C 162.979 26.887,163.614 27.118,164.195 27.262 C 164.775 27.406,165.449 27.665,165.692 27.838 C 165.935 28.011,166.331 28.202,166.574 28.263 C 166.816 28.323,167.142 28.563,167.299 28.794 C 167.455 29.026,167.999 29.673,168.507 30.233 C 169.786 31.641,170.305 32.378,170.594 33.197 C 170.731 33.584,170.953 34.023,171.088 34.172 C 171.224 34.322,171.407 35.000,171.496 35.680 C 171.688 37.155,171.882 37.859,172.237 38.365 C 172.531 38.785,172.620 41.406,172.346 41.575 C 172.099 41.728,171.642 43.269,171.497 44.442 C 171.423 45.038,171.249 45.650,171.110 45.804 C 170.971 45.958,170.731 46.455,170.578 46.908 C 170.424 47.362,169.958 48.149,169.543 48.658 C 169.129 49.167,168.709 49.758,168.612 49.971 C 168.515 50.184,168.229 50.465,167.978 50.595 C 167.726 50.725,167.034 51.199,166.440 51.649 C 165.710 52.202,165.087 52.525,164.518 52.647 C 164.055 52.747,163.393 52.979,163.049 53.164 C 162.252 53.591,162.106 53.585,161.025 53.082 C 160.535 52.853,160.010 52.666,159.858 52.666 C 159.707 52.665,159.358 52.544,159.083 52.396 C 158.808 52.248,158.222 51.942,157.780 51.716 C 157.339 51.490,156.846 51.089,156.686 50.825 C 156.526 50.562,156.043 50.037,155.614 49.659 C 155.185 49.281,154.833 48.871,154.833 48.749 C 154.833 48.626,154.645 48.302,154.415 48.028 C 154.184 47.754,153.882 47.209,153.744 46.815 C 153.605 46.422,153.376 45.973,153.236 45.817 C 153.095 45.662,152.909 45.034,152.822 44.423 C 152.736 43.811,152.498 42.960,152.293 42.531 C 151.747 41.383,151.642 37.978,152.136 37.443 C 152.487 37.063,152.829 36.030,152.835 35.333 C 152.837 35.104,152.947 34.729,153.080 34.500 C 153.213 34.271,153.479 33.746,153.670 33.333 C 153.862 32.921,154.192 32.321,154.403 32.000 C 154.615 31.679,155.042 31.013,155.352 30.520 C 155.694 29.978,156.246 29.405,156.750 29.070 C 157.208 28.766,157.898 28.292,158.283 28.018 C 158.697 27.724,159.386 27.441,159.973 27.325 C 160.518 27.218,161.178 26.989,161.440 26.816 C 162.017 26.436,162.314 26.421,162.783 26.750 M368.286 28.099 C 368.229 28.854,368.091 29.476,367.945 29.641 C 367.810 29.792,367.590 30.179,367.455 30.500 C 367.116 31.309,364.980 33.333,364.466 33.333 C 364.246 33.333,363.964 33.427,363.838 33.542 C 363.712 33.656,363.768 33.539,363.962 33.281 C 364.156 33.023,364.403 32.536,364.511 32.198 C 364.619 31.860,364.837 31.433,364.996 31.250 C 365.462 30.710,366.397 29.292,366.667 28.716 C 366.910 28.197,368.079 26.833,368.281 26.833 C 368.336 26.833,368.338 27.403,368.286 28.099 M282.248 29.391 C 282.001 29.955,281.590 30.867,281.334 31.417 C 281.079 31.967,280.820 32.633,280.759 32.898 C 280.699 33.162,280.471 33.612,280.254 33.898 C 280.037 34.183,279.807 34.642,279.743 34.917 C 279.680 35.192,279.411 35.694,279.147 36.032 C 278.883 36.370,278.667 36.721,278.667 36.812 C 278.667 36.902,278.573 37.075,278.458 37.196 C 278.344 37.318,278.069 37.754,277.847 38.167 C 277.625 38.579,277.282 39.083,277.083 39.286 C 276.885 39.490,276.631 39.963,276.519 40.337 C 276.406 40.711,276.204 41.060,276.068 41.112 C 275.932 41.164,275.703 41.442,275.558 41.729 C 275.413 42.015,275.143 42.416,274.957 42.619 C 274.772 42.822,274.537 43.131,274.435 43.307 C 274.130 43.834,272.881 45.542,272.344 46.167 L 271.842 46.750 271.838 46.067 C 271.835 45.602,271.935 45.293,272.153 45.095 C 272.329 44.936,272.561 44.418,272.669 43.945 C 272.777 43.471,272.993 42.896,273.150 42.667 C 273.307 42.438,273.538 41.987,273.663 41.667 C 273.789 41.346,274.023 40.892,274.184 40.657 C 274.345 40.423,274.607 39.898,274.766 39.490 C 274.925 39.083,275.183 38.563,275.338 38.333 C 275.494 38.104,275.781 37.579,275.977 37.167 C 276.173 36.754,276.558 36.117,276.833 35.750 C 277.109 35.383,277.569 34.652,277.857 34.125 C 278.144 33.598,278.436 33.167,278.505 33.167 C 278.574 33.167,278.795 32.815,278.998 32.385 C 279.307 31.725,280.184 30.613,281.726 28.922 C 281.896 28.736,282.158 28.400,282.308 28.175 C 282.790 27.457,282.750 28.245,282.248 29.391 " stroke="none" fill="#45a4cf" fill-rule="evenodd"></path><path id="path2" d="M340.242 16.153 C 338.998 16.357,336.309 18.341,334.605 20.311 C 334.158 20.828,333.458 21.587,333.049 22.000 C 332.081 22.976,329.413 26.529,327.668 29.167 C 325.052 33.121,324.537 33.919,324.175 34.583 C 323.117 36.523,321.890 38.333,321.634 38.333 C 321.066 38.333,321.084 36.341,321.670 34.446 C 321.862 33.824,322.126 32.657,322.255 31.855 C 322.385 31.052,322.636 30.062,322.814 29.656 C 322.991 29.249,323.220 28.367,323.322 27.695 C 323.424 27.022,323.645 26.197,323.814 25.861 C 323.983 25.525,324.254 24.837,324.417 24.333 C 324.580 23.829,324.847 23.226,325.010 22.994 C 325.173 22.761,325.394 22.086,325.502 21.494 C 326.238 17.463,324.025 14.760,321.721 16.875 C 319.004 19.368,318.182 21.132,317.743 25.404 C 317.612 26.681,317.386 28.181,317.240 28.738 C 317.095 29.294,316.838 30.922,316.668 32.355 C 316.499 33.788,316.248 35.291,316.111 35.694 C 315.974 36.098,315.740 37.475,315.592 38.754 C 315.444 40.033,315.170 41.567,314.985 42.164 C 314.799 42.762,314.575 43.887,314.487 44.667 C 314.399 45.446,314.146 46.721,313.926 47.500 C 313.705 48.279,313.445 49.409,313.346 50.011 C 313.248 50.613,312.980 51.658,312.750 52.332 C 312.521 53.007,312.333 53.685,312.333 53.841 C 312.333 53.996,312.183 54.593,312.000 55.167 C 310.936 58.498,313.174 61.573,315.850 60.455 C 316.467 60.198,317.513 58.404,318.012 56.750 C 318.123 56.383,318.345 55.895,318.506 55.665 C 318.667 55.435,318.888 54.910,318.996 54.498 C 319.105 54.087,319.327 53.519,319.491 53.236 C 319.655 52.954,319.882 52.429,319.996 52.070 C 320.110 51.711,320.335 51.186,320.496 50.903 C 320.657 50.621,320.885 50.096,321.003 49.736 C 321.121 49.377,321.694 48.148,322.276 47.004 C 322.857 45.860,323.334 44.810,323.334 44.670 C 323.334 44.531,323.501 44.154,323.704 43.833 C 323.907 43.512,324.268 42.875,324.506 42.417 C 325.984 39.570,326.918 37.866,327.189 37.519 C 327.360 37.301,327.500 37.027,327.500 36.911 C 327.500 36.795,327.800 36.301,328.167 35.813 C 328.533 35.325,328.833 34.866,328.833 34.792 C 328.833 34.673,329.263 33.994,330.334 32.417 C 330.520 32.142,331.140 31.288,331.712 30.520 C 332.283 29.753,332.859 28.965,332.993 28.770 C 334.050 27.232,336.076 25.170,336.922 24.769 C 338.069 24.226,337.876 24.211,339.689 24.992 C 341.796 25.900,342.829 25.350,344.214 22.583 C 346.235 18.546,344.340 15.479,340.242 16.153 M367.059 16.679 C 364.690 17.924,360.617 22.008,358.344 25.417 C 357.855 26.150,357.327 26.900,357.171 27.083 C 357.015 27.267,356.738 27.717,356.556 28.083 C 356.374 28.450,356.104 28.975,355.957 29.250 C 355.346 30.387,354.500 32.292,354.500 32.529 C 354.500 32.669,354.315 33.132,354.088 33.559 C 353.861 33.985,353.554 34.765,353.404 35.292 C 353.255 35.819,353.032 36.410,352.909 36.605 C 352.786 36.801,352.534 37.567,352.349 38.308 C 352.165 39.050,351.903 39.871,351.767 40.134 C 351.631 40.397,351.400 41.301,351.254 42.144 C 351.108 42.987,350.926 43.843,350.851 44.047 C 349.970 46.430,349.951 51.931,350.816 54.333 C 351.097 55.112,351.328 55.871,351.330 56.019 C 351.341 56.909,353.255 58.903,355.083 59.929 L 356.250 60.583 359.833 60.575 C 363.137 60.568,363.488 60.538,364.333 60.197 C 364.837 59.994,365.725 59.716,366.305 59.580 C 366.885 59.443,367.672 59.152,368.055 58.932 C 368.437 58.713,368.985 58.484,369.271 58.424 C 369.558 58.365,370.041 58.132,370.345 57.908 C 370.649 57.684,370.988 57.500,371.097 57.500 C 371.206 57.500,371.678 57.237,372.144 56.917 C 372.610 56.596,373.052 56.333,373.125 56.333 C 373.199 56.333,373.669 56.034,374.171 55.669 C 374.673 55.303,375.308 54.851,375.583 54.664 C 377.294 53.502,378.520 52.526,379.641 51.435 C 380.342 50.751,381.195 49.972,381.535 49.703 C 381.875 49.434,382.446 48.847,382.804 48.399 C 383.162 47.950,383.662 47.396,383.914 47.167 C 387.979 43.470,390.892 37.348,388.734 37.034 C 388.285 36.969,386.505 38.716,384.340 41.346 C 383.931 41.843,382.813 42.962,381.856 43.833 C 380.899 44.704,379.846 45.679,379.516 46.001 C 379.186 46.322,378.542 46.884,378.083 47.251 C 377.625 47.617,377.175 47.996,377.083 48.093 C 376.394 48.821,370.443 52.833,370.051 52.833 C 370.000 52.833,369.536 53.047,369.021 53.308 C 368.505 53.569,367.783 53.879,367.417 53.996 C 367.050 54.113,366.412 54.366,366.000 54.559 C 364.972 55.040,360.343 55.186,359.525 54.763 C 358.849 54.413,357.239 52.755,357.030 52.193 C 356.129 49.766,355.988 47.480,356.574 44.774 C 357.132 42.197,357.337 42.021,358.782 42.875 C 359.777 43.463,363.643 43.417,365.083 42.800 C 365.633 42.564,366.346 42.317,366.667 42.250 C 368.532 41.862,373.280 37.698,374.103 35.728 C 374.250 35.377,374.505 34.918,374.669 34.709 C 374.833 34.500,375.060 33.937,375.172 33.456 C 375.284 32.976,375.550 32.164,375.762 31.651 C 376.119 30.791,376.250 29.953,376.614 26.210 C 376.948 22.765,375.803 20.042,373.747 19.394 C 372.726 19.072,372.446 18.824,371.835 17.698 C 370.940 16.050,369.032 15.642,367.059 16.679 M210.294 17.347 C 208.092 17.866,206.136 20.679,204.159 26.167 C 203.441 28.160,202.860 29.627,202.524 30.296 C 202.352 30.637,202.161 31.199,202.098 31.543 C 202.035 31.888,201.763 32.638,201.492 33.210 C 201.222 33.782,201.000 34.400,201.000 34.583 C 201.000 34.767,200.783 35.374,200.518 35.934 C 200.254 36.494,199.981 37.206,199.913 37.517 C 199.845 37.829,199.582 38.608,199.328 39.250 C 199.074 39.892,198.813 40.754,198.747 41.167 C 198.681 41.579,198.492 42.183,198.327 42.508 C 198.163 42.832,197.878 43.695,197.695 44.424 C 197.512 45.153,197.245 46.067,197.100 46.454 C 195.928 49.599,196.139 57.157,197.458 59.327 C 199.385 62.497,202.390 60.794,209.523 52.488 C 211.725 49.925,212.890 48.623,214.583 46.834 C 217.604 43.643,219.408 41.695,220.053 40.925 C 221.550 39.142,221.938 40.336,221.162 44.333 C 219.735 51.678,221.004 59.848,223.679 60.552 C 224.469 60.760,226.216 60.574,226.851 60.215 C 227.141 60.051,227.730 59.729,228.159 59.500 C 230.219 58.401,234.974 54.123,236.586 51.917 C 236.854 51.550,237.496 50.762,238.014 50.167 C 238.531 49.571,239.358 48.493,239.852 47.772 C 240.346 47.051,240.900 46.256,241.083 46.005 C 242.364 44.253,245.171 39.578,245.468 38.701 C 245.571 38.399,245.797 37.949,245.971 37.701 C 246.145 37.453,246.381 36.950,246.495 36.583 C 246.610 36.217,246.872 35.617,247.077 35.250 C 247.283 34.883,247.542 34.213,247.653 33.759 C 247.764 33.306,247.992 32.631,248.160 32.259 C 248.328 31.888,248.582 31.302,248.724 30.958 C 248.867 30.615,249.081 30.326,249.200 30.316 C 249.319 30.306,250.992 30.283,252.917 30.265 C 255.999 30.235,256.539 30.188,257.437 29.876 C 257.999 29.682,258.936 29.437,259.521 29.332 C 260.456 29.165,262.631 28.339,263.583 27.791 C 263.767 27.685,264.345 27.370,264.869 27.091 C 267.390 25.746,269.596 22.947,269.005 21.843 C 268.741 21.349,267.829 21.385,267.200 21.914 C 265.701 23.176,263.812 24.145,261.917 24.624 C 261.367 24.763,260.279 25.072,259.500 25.312 C 257.210 26.014,253.610 25.950,251.750 25.173 C 249.964 24.427,249.355 23.657,248.783 21.414 C 247.837 17.710,244.573 16.048,242.175 18.051 C 239.745 20.081,239.936 23.976,242.615 27.037 C 243.495 28.043,243.559 29.256,242.837 31.250 C 242.638 31.800,242.331 32.662,242.153 33.167 C 241.663 34.560,239.399 39.270,238.237 41.313 C 234.201 48.411,229.026 53.597,226.933 52.644 C 226.002 52.220,225.487 49.587,225.802 46.869 C 225.905 45.978,226.066 44.530,226.160 43.650 C 226.253 42.770,226.452 41.757,226.601 41.400 C 226.751 41.042,226.980 40.084,227.111 39.269 C 227.242 38.454,227.487 37.517,227.654 37.186 C 227.822 36.854,228.045 36.178,228.150 35.682 C 228.255 35.186,228.496 34.436,228.685 34.015 C 228.875 33.594,229.135 32.853,229.265 32.368 C 229.394 31.883,229.687 31.133,229.916 30.703 C 230.146 30.272,230.333 29.849,230.333 29.764 C 230.333 29.606,231.300 27.495,231.790 26.583 C 233.827 22.795,234.022 21.496,232.821 19.708 C 231.129 17.188,228.012 18.625,226.904 22.434 C 226.582 23.543,225.530 25.789,224.875 26.766 C 223.240 29.205,221.820 31.000,218.690 34.583 C 217.649 35.775,216.599 37.012,216.357 37.333 C 216.115 37.654,214.792 39.217,213.417 40.806 C 212.042 42.395,210.594 44.082,210.201 44.556 C 209.807 45.029,209.064 45.886,208.549 46.460 C 208.034 47.034,207.509 47.651,207.382 47.832 C 205.884 49.971,203.195 51.588,202.510 50.762 C 202.015 50.166,202.183 46.764,202.761 45.645 C 202.906 45.365,203.136 44.601,203.272 43.946 C 203.409 43.292,203.660 42.530,203.831 42.253 C 204.001 41.976,204.256 41.254,204.396 40.647 C 204.537 40.041,204.799 39.291,204.979 38.981 C 205.159 38.670,205.394 38.084,205.501 37.678 C 205.608 37.271,205.914 36.529,206.181 36.029 C 206.448 35.529,206.667 35.021,206.667 34.901 C 206.667 34.083,209.365 29.549,210.913 27.767 C 211.971 26.549,213.000 25.055,213.000 24.737 C 213.000 24.633,213.237 24.105,213.526 23.565 C 215.264 20.319,213.346 16.627,210.294 17.347 M284.754 17.289 C 284.320 17.399,281.940 18.725,281.037 19.360 C 279.032 20.770,274.828 25.248,272.455 28.500 C 271.753 29.462,271.041 30.438,270.874 30.667 C 270.707 30.896,270.243 31.608,269.842 32.250 C 269.442 32.892,268.924 33.717,268.691 34.083 C 268.458 34.450,268.108 35.050,267.914 35.417 C 267.719 35.783,267.235 36.644,266.839 37.329 C 266.443 38.015,266.008 38.840,265.873 39.163 C 265.739 39.486,265.498 39.938,265.337 40.167 C 265.177 40.396,264.953 40.883,264.838 41.250 C 264.723 41.617,264.461 42.217,264.254 42.583 C 264.047 42.950,263.784 43.550,263.669 43.917 C 263.554 44.283,263.317 44.821,263.142 45.111 C 262.967 45.401,262.705 46.038,262.560 46.527 C 262.415 47.016,262.164 47.679,262.001 48.000 C 261.838 48.321,261.619 49.004,261.513 49.517 C 261.407 50.031,261.171 50.843,260.989 51.322 C 260.530 52.530,260.262 55.376,260.477 56.758 C 260.944 59.754,264.755 61.698,267.424 60.301 C 269.259 59.340,269.832 58.964,271.732 57.474 C 272.132 57.161,274.342 54.909,275.714 53.417 C 276.590 52.464,277.849 50.910,279.960 48.177 C 282.645 44.700,282.715 44.757,283.001 50.667 C 283.121 53.153,283.285 54.978,283.418 55.333 C 284.252 57.553,284.469 57.943,285.470 59.017 C 287.934 61.664,290.879 61.224,295.917 57.459 C 299.044 55.122,303.518 50.425,305.737 47.151 C 307.746 44.188,308.482 42.970,309.151 41.500 C 309.339 41.087,309.641 40.478,309.822 40.146 C 310.882 38.206,310.487 35.239,309.245 35.805 C 308.783 36.016,308.610 36.250,305.724 40.583 C 304.210 42.856,304.157 42.929,302.627 44.870 C 302.100 45.537,301.290 46.571,300.826 47.167 C 299.253 49.186,295.045 53.277,293.679 54.114 C 290.879 55.831,289.395 55.283,288.333 52.143 L 287.750 50.417 287.753 46.083 C 287.755 42.488,287.807 41.537,288.056 40.500 C 288.221 39.813,288.503 38.313,288.682 37.167 C 288.861 36.021,289.155 34.708,289.337 34.250 C 289.518 33.792,289.749 32.967,289.849 32.417 C 289.950 31.867,290.202 31.004,290.411 30.500 C 290.620 29.996,290.843 29.283,290.908 28.917 C 290.972 28.550,291.196 27.950,291.404 27.583 C 291.613 27.217,291.874 26.550,291.983 26.103 C 292.093 25.655,292.341 24.980,292.533 24.603 C 294.089 21.561,293.201 18.968,290.761 19.426 C 289.844 19.598,289.311 19.378,288.258 18.393 C 286.974 17.193,286.154 16.934,284.754 17.289 M370.045 23.484 C 372.676 25.913,372.106 30.249,368.637 34.190 C 365.279 38.004,358.051 39.202,359.570 35.692 C 359.795 35.174,360.028 34.563,360.088 34.333 C 360.252 33.711,361.641 30.973,363.063 28.468 C 364.010 26.802,366.510 23.983,367.790 23.139 C 368.552 22.636,369.242 22.742,370.045 23.484 M284.262 24.078 C 285.718 24.686,286.091 29.343,284.848 31.405 C 284.679 31.687,284.457 32.180,284.354 32.501 C 284.251 32.823,283.717 33.984,283.167 35.083 C 282.617 36.181,282.167 37.140,282.167 37.214 C 282.167 37.341,280.945 39.380,280.000 40.830 C 279.771 41.182,279.208 42.046,278.750 42.750 C 275.144 48.289,270.165 53.833,268.796 53.833 C 267.251 53.833,266.738 51.812,267.650 49.310 C 267.829 48.819,268.058 47.998,268.160 47.486 C 268.262 46.975,268.489 46.289,268.664 45.962 C 268.839 45.636,269.105 44.892,269.255 44.309 C 269.405 43.727,269.663 43.025,269.827 42.750 C 269.992 42.475,270.220 41.950,270.336 41.583 C 270.451 41.217,270.715 40.617,270.922 40.250 C 271.129 39.883,271.354 39.396,271.423 39.167 C 271.491 38.938,271.892 38.129,272.315 37.369 C 272.738 36.609,273.308 35.583,273.583 35.088 C 274.648 33.172,274.812 32.904,275.166 32.500 C 275.367 32.271,275.649 31.858,275.792 31.583 C 276.024 31.136,276.527 30.438,277.833 28.750 C 278.063 28.454,278.561 27.803,278.941 27.303 C 280.967 24.639,282.860 23.492,284.262 24.078 " stroke="none" fill="#fa9c05" fill-rule="evenodd"></path></g></svg>